<svg width="76" height="24" viewBox="0 0 76 24" fill="none" xmlns="http://www.w3.org/2000/svg">
<path opacity="0.2" d="M12.696 17.752V23H0.952V0.599998H6.488V17.752H12.696ZM33.4198 11.8C33.4198 18.712 29.5158 23.32 23.6598 23.32C17.7718 23.32 13.8358 18.712 13.8358 11.8C13.8358 4.888 17.7718 0.279999 23.6598 0.279999C29.5158 0.279999 33.4198 4.888 33.4198 11.8ZM19.3398 11.8C19.3398 15.384 21.0677 17.848 23.6598 17.848C26.1878 17.848 27.8518 15.384 27.8518 11.8C27.8518 8.216 26.1878 5.784 23.6598 5.784C21.0677 5.784 19.3398 8.216 19.3398 11.8ZM35.3983 11.832C35.3983 4.888 39.5903 0.279999 45.2543 0.279999C49.0303 0.279999 53.0623 2.488 54.0223 7.992H48.6463C48.0703 6.2 46.8863 5.528 45.2543 5.528C42.4703 5.528 40.9983 8.024 40.9983 11.8C40.9983 15.48 42.6943 17.944 45.2543 17.944C46.7903 17.944 48.1023 17.368 48.6463 15.224H45.2543V10.296H54.2463C54.7583 17.4 52.1983 23.288 45.2543 23.288C39.3343 23.288 35.3983 18.712 35.3983 11.832ZM75.701 11.8C75.701 18.712 71.797 23.32 65.941 23.32C60.053 23.32 56.117 18.712 56.117 11.8C56.117 4.888 60.053 0.279999 65.941 0.279999C71.797 0.279999 75.701 4.888 75.701 11.8ZM61.621 11.8C61.621 15.384 63.349 17.848 65.941 17.848C68.469 17.848 70.133 15.384 70.133 11.8C70.133 8.216 68.469 5.784 65.941 5.784C63.349 5.784 61.621 8.216 61.621 11.8Z" fill="black"/>
</svg>
